<?xml version="1.0" standalone="no"?><svg xmlns="http://www.w3.org/2000/svg" viewBox="0 0 1440 320"><path fill="#5000ca" fill-opacity="1" d="M0,32L30,80C60,128,120,224,180,266.7C240,309,300,299,360,272C420,245,480,203,540,181.3C600,160,660,160,720,154.7C780,149,840,139,900,160C960,181,1020,235,1080,261.3C1140,288,1200,288,1260,288C1320,288,1380,288,1410,288L1440,288L1440,0L1410,0C1380,0,1320,0,1260,0C1200,0,1140,0,1080,0C1020,0,960,0,900,0C840,0,780,0,720,0C660,0,600,0,540,0C480,0,420,0,360,0C300,0,240,0,180,0C120,0,60,0,30,0L0,0Z"></path></svg>